<svg width="140" height="95" viewBox="0 0 140 95" fill="none" xmlns="http://www.w3.org/2000/svg">
<path d="M112.222 67.8549C111.853 68.4269 111.407 68.9519 110.884 69.43C110.36 69.9081 109.786 70.3191 109.162 70.663C108.561 71.0101 107.926 71.2566 107.258 71.4022C106.586 71.5714 105.909 71.6079 105.226 71.5116C103.368 71.2493 102.086 70.5525 101.382 69.4212C100.704 68.2697 100.49 66.8115 100.739 65.0468L102.766 50.6817C102.789 50.517 102.804 50.3271 102.81 50.112C102.843 49.8767 102.838 49.66 102.794 49.4618C102.753 49.2401 102.684 49.0503 102.586 48.8925C102.489 48.7348 102.334 48.6409 102.122 48.611C101.463 48.5181 100.736 48.8235 99.941 49.5272C99.1693 50.2343 98.3761 51.1783 97.5615 52.3593C96.7704 53.5435 95.9931 54.8858 95.2295 56.3859C94.4894 57.8894 93.8097 59.3894 93.1906 60.8859C92.5748 62.3589 92.0546 63.7494 91.6301 65.0574C91.2291 66.3688 90.9721 67.4244 90.8592 68.2244L84.1168 69.5769L87.4635 45.8588C87.5299 45.3882 87.472 44.948 87.2898 44.5383C87.1109 44.1051 86.7744 43.8537 86.2803 43.7839C85.6921 43.7009 85.1193 43.8481 84.5621 44.2255C84.0318 44.5826 83.5955 44.953 83.2534 45.3367L82.4498 44.1434C82.8152 43.595 83.2478 43.0801 83.7477 42.5986C84.2745 42.097 84.8383 41.6726 85.4393 41.3254C86.0638 40.9816 86.7103 40.7368 87.3788 40.5912C88.0741 40.4253 88.7748 40.3922 89.4807 40.4918C91.316 40.7507 92.5606 41.4543 93.2146 42.6025C93.8953 43.7305 94.1129 45.1651 93.8672 46.9063L92.2437 58.4125C92.5916 57.4776 93.0283 56.4233 93.5539 55.2496C94.1064 54.0556 94.7311 52.8598 95.428 51.6622C96.1249 50.4647 96.8757 49.3107 97.6804 48.2003C98.5118 47.0697 99.3822 46.0886 100.292 45.257C101.204 44.4018 102.159 43.7566 103.156 43.3214C104.157 42.8626 105.187 42.7079 106.246 42.8573C107.352 43.0134 108.152 43.3783 108.647 43.9521C109.145 44.5024 109.459 45.1706 109.588 45.9567C109.744 46.7227 109.771 47.5544 109.668 48.4519C109.565 49.3493 109.456 50.2098 109.34 51.0334L107.208 66.1396C107.142 66.6102 107.198 67.0621 107.377 67.4953C107.559 67.905 107.897 68.1447 108.391 68.2144C108.933 68.2908 109.468 68.1504 109.999 67.7932C110.556 67.4159 111.006 67.0354 111.348 66.6517L112.222 67.8549Z" fill="#FF5C16"/>
<path d="M123.977 66.6963C123.812 67.0472 123.618 67.3158 123.396 67.502C123.174 67.6882 122.963 67.8242 122.763 67.9102C122.526 68.0104 122.286 68.0677 122.043 68.082C121.721 68.082 121.456 68.0319 121.248 67.9316C121.048 67.8314 120.886 67.6989 120.765 67.5342C120.643 67.3695 120.557 67.1833 120.507 66.9756C120.464 66.7679 120.442 66.5566 120.442 66.3418V61.8408C120.442 61.7262 120.421 61.626 120.378 61.54C120.335 61.4469 120.278 61.3932 120.206 61.3789C120.134 61.3646 120.049 61.4004 119.948 61.4863C119.848 61.5723 119.741 61.7262 119.626 61.9482C119.433 62.5212 119.257 63.1227 119.1 63.7529C118.964 64.2972 118.838 64.9131 118.724 65.6006C118.616 66.2809 118.555 66.9827 118.541 67.7061L116.564 68.3936V61.8408C116.564 61.7262 116.543 61.626 116.5 61.54C116.457 61.4469 116.396 61.3932 116.317 61.3789C116.246 61.3646 116.16 61.4004 116.06 61.4863C115.959 61.5723 115.855 61.7262 115.748 61.9482C115.533 62.5498 115.347 63.1764 115.189 63.8281C115.118 64.1074 115.05 64.4046 114.985 64.7197C114.921 65.0348 114.864 65.3607 114.813 65.6973C114.771 66.0267 114.735 66.3633 114.706 66.707C114.677 67.0436 114.667 67.3766 114.674 67.7061L112.719 68.3936V61.1748C112.719 61.0029 112.679 60.8669 112.601 60.7666C112.522 60.6663 112.418 60.6162 112.289 60.6162C112.167 60.609 112.031 60.652 111.881 60.7451C111.73 60.8382 111.584 60.9886 111.44 61.1963L111.15 60.874C111.315 60.5303 111.505 60.2653 111.72 60.0791C111.942 59.8857 112.157 59.7461 112.364 59.6602C112.601 59.5599 112.844 59.5026 113.095 59.4883C113.41 59.4883 113.668 59.5384 113.868 59.6387C114.076 59.7389 114.237 59.8714 114.352 60.0361C114.473 60.1937 114.556 60.3763 114.599 60.584C114.649 60.7917 114.674 61.0029 114.674 61.2178V63.4844C114.803 62.8398 114.996 62.2705 115.254 61.7764C115.512 61.2822 115.78 60.8669 116.06 60.5303C116.346 60.1865 116.625 59.9287 116.897 59.7568C117.17 59.5778 117.388 59.4883 117.553 59.4883C117.76 59.4883 117.929 59.5241 118.058 59.5957C118.187 59.6602 118.287 59.7604 118.358 59.8965C118.43 60.0326 118.477 60.2008 118.498 60.4014C118.527 60.5947 118.541 60.8239 118.541 61.0889V63.4844C118.677 62.8398 118.87 62.2705 119.121 61.7764C119.379 61.2822 119.651 60.8669 119.938 60.5303C120.224 60.1865 120.503 59.9287 120.775 59.7568C121.048 59.5778 121.266 59.4883 121.431 59.4883C121.839 59.4883 122.104 59.6243 122.226 59.8965C122.354 60.1615 122.419 60.5589 122.419 61.0889V66.3955C122.419 66.5674 122.458 66.7035 122.537 66.8037C122.616 66.904 122.716 66.9577 122.838 66.9648C122.96 66.9648 123.092 66.9183 123.235 66.8252C123.386 66.7321 123.533 66.5817 123.676 66.374L123.977 66.6963ZM132.484 65.8584C132.234 66.1807 131.958 66.4814 131.657 66.7607C131.364 67.04 131.041 67.2835 130.69 67.4912C130.347 67.6989 129.981 67.8636 129.595 67.9854C129.208 68.1071 128.807 68.168 128.392 68.168C127.862 68.168 127.375 68.0749 126.931 67.8887C126.487 67.6953 126.104 67.4339 125.781 67.1045C125.459 66.7679 125.208 66.374 125.029 65.9229C124.85 65.4645 124.761 64.974 124.761 64.4512C124.761 64.0215 124.822 63.599 124.943 63.1836C125.065 62.7682 125.237 62.3779 125.459 62.0127C125.681 61.6475 125.942 61.3109 126.243 61.0029C126.551 60.6878 126.888 60.4193 127.253 60.1973C127.618 59.9753 128.005 59.8034 128.413 59.6816C128.821 59.5527 129.24 59.4883 129.67 59.4883C129.971 59.4883 130.254 59.5241 130.519 59.5957C130.791 59.6673 131.031 59.7819 131.238 59.9395C131.446 60.0898 131.611 60.2868 131.732 60.5303C131.854 60.7666 131.915 61.0495 131.915 61.3789C131.915 61.651 131.833 61.9375 131.668 62.2383C131.51 62.5391 131.299 62.8398 131.034 63.1406C130.776 63.4414 130.483 63.7386 130.153 64.0322C129.824 64.3187 129.487 64.5872 129.144 64.8379C128.807 65.0814 128.481 65.2962 128.166 65.4824C127.851 65.6686 127.575 65.8118 127.339 65.9121C127.604 66.2415 127.912 66.5101 128.263 66.7178C128.614 66.9255 128.986 67.0293 129.38 67.0293C129.631 67.0293 129.885 66.9827 130.143 66.8896C130.4 66.7894 130.647 66.6641 130.884 66.5137C131.127 66.3633 131.356 66.1986 131.571 66.0195C131.793 65.8405 131.99 65.6722 132.162 65.5146L132.484 65.8584ZM129.896 61.7764C129.896 61.6117 129.867 61.4541 129.81 61.3037C129.759 61.1533 129.684 61.0244 129.584 60.917C129.484 60.8024 129.362 60.7129 129.219 60.6484C129.083 60.5768 128.925 60.541 128.746 60.541C128.424 60.541 128.127 60.6556 127.854 60.8848C127.582 61.1068 127.346 61.3825 127.146 61.7119C126.952 62.0413 126.798 62.3923 126.684 62.7646C126.576 63.1299 126.522 63.4521 126.522 63.7314C126.522 64.0036 126.565 64.2829 126.651 64.5693C126.737 64.8558 126.855 65.1315 127.006 65.3965C127.292 65.2389 127.604 65.0205 127.94 64.7412C128.277 64.4619 128.589 64.1576 128.875 63.8281C129.169 63.4915 129.412 63.1442 129.605 62.7861C129.799 62.4281 129.896 62.0915 129.896 61.7764Z" fill="#FF5C16"/>
<path d="M74.8545 33.9302C74.1562 33.9302 73.4897 33.8032 72.855 33.5493C72.2202 33.2743 71.6701 32.904 71.2046 32.4385C70.7391 31.9941 70.3688 31.4546 70.0938 30.8198C69.8398 30.1851 69.7129 29.5186 69.7129 28.8203C69.7129 28.1221 69.8398 27.4556 70.0938 26.8208C70.3688 26.186 70.7391 25.6253 71.2046 25.1387C71.6701 24.652 72.2202 24.2817 72.855 24.0278C73.4897 23.7528 74.1562 23.6152 74.8545 23.6152C75.5527 23.6152 76.2192 23.7528 76.854 24.0278C77.4888 24.2817 78.0495 24.652 78.5361 25.1387C79.0228 25.6253 79.3931 26.186 79.647 26.8208C79.922 27.4556 80.0596 28.1221 80.0596 28.8203C80.0596 29.5186 79.922 30.1851 79.647 30.8198C79.3931 31.4546 79.0228 31.9941 78.5361 32.4385C78.0495 32.904 77.4888 33.2743 76.854 33.5493C76.2192 33.8032 75.5527 33.9302 74.8545 33.9302ZM70.4429 70.334C68.3693 70.334 66.7295 69.7204 65.5234 68.4932C64.1693 67.139 63.4922 65.1606 63.4922 62.5581C63.4922 61.3309 63.6615 59.9132 64 58.3052L68.4116 37.4531H77.7744L73.1089 59.543C72.9396 60.0931 72.855 60.7913 72.855 61.6377C72.855 62.5264 73.056 63.1506 73.458 63.5103C73.8812 63.87 74.5583 64.0498 75.4893 64.0498C76.124 64.0498 76.7376 63.9123 77.3301 63.6372C77.9437 63.341 78.5044 62.939 79.0122 62.4312C80.049 61.3944 80.8319 60.019 81.3608 58.3052H84.0903C82.9266 61.5848 81.4666 64.1979 79.7104 66.1445C78.2293 67.7314 76.5578 68.874 74.6958 69.5723C73.3416 70.0801 71.924 70.334 70.4429 70.334Z" fill="#FF5C16"/>
<path d="M24.3467 33.8667C23.6484 33.8667 22.9819 33.7397 22.3472 33.4858C21.7124 33.2108 21.1623 32.8405 20.6968 32.375C20.2313 31.9307 19.861 31.3911 19.5859 30.7563C19.332 30.1216 19.2051 29.4551 19.2051 28.7568C19.2051 28.0586 19.332 27.3921 19.5859 26.7573C19.861 26.1014 20.2313 25.5407 20.6968 25.0752C21.1623 24.6097 21.7124 24.2394 22.3472 23.9644C22.9819 23.6893 23.6484 23.5518 24.3467 23.5518C25.0449 23.5518 25.7114 23.6893 26.3462 23.9644C26.981 24.2394 27.5311 24.6097 27.9966 25.0752C28.4621 25.5407 28.8324 26.1014 29.1074 26.7573C29.3825 27.3921 29.52 28.0586 29.52 28.7568C29.52 29.4551 29.3825 30.1216 29.1074 30.7563C28.8324 31.37 28.4621 31.9095 27.9966 32.375C27.5311 32.8405 26.981 33.2108 26.3462 33.4858C25.7114 33.7397 25.0449 33.8667 24.3467 33.8667ZM8.16016 86.2031C6.10775 86.2031 4.40446 85.6742 3.05029 84.6162C2.35205 84.0872 1.8125 83.4207 1.43164 82.6167C1.05078 81.8338 0.860352 80.924 0.860352 79.8872C0.860352 77.4539 2.02409 75.3592 4.35156 73.603C6.06543 72.2912 8.45638 71.1592 11.5244 70.207L18.4751 37.4531H27.8379L21.395 67.6045C23.4474 66.9274 25.0872 65.9118 26.3145 64.5576C27.6263 63.1188 28.7266 61.0347 29.6152 58.3052H32.3447C31.181 62.1561 29.446 65.1289 27.1396 67.2236C25.4258 68.7682 23.3205 69.8473 20.8237 70.4609L19.8398 75.1582C19.0146 79.2842 17.3748 82.2887 14.9204 84.1719C13.1219 85.526 10.8685 86.2031 8.16016 86.2031ZM6.66846 81.125C7.34554 81.125 8.0332 80.6489 8.73145 79.6968C9.45085 78.7658 10.0116 77.3164 10.4136 75.3486L10.8262 73.4761C8.81608 74.2378 7.33496 74.9889 6.38281 75.7295C5.09212 76.7028 4.44678 77.7925 4.44678 78.9985C4.44678 79.5698 4.62663 80.0459 4.98633 80.4268C5.40951 80.8923 5.97021 81.125 6.66846 81.125Z" fill="#F2F2F2"/>
<path fill-rule="evenodd" clip-rule="evenodd" d="M41.8182 70.2003C43.2933 70.0349 44.7071 69.6059 46.0596 68.9136C47.8369 68.0037 49.4132 66.7025 50.7886 65.0098C52.1851 63.2747 53.3276 61.2012 54.2163 58.7891C55.105 56.3558 55.6763 53.6686 55.9302 50.7275C58.3423 50.3255 60.5428 49.659 62.5317 48.728C64.5418 47.797 66.1816 46.665 67.4512 45.332L66.8799 43.5547C65.3353 44.6338 63.6955 45.533 61.9604 46.2524C59.9927 47.0565 58.2894 47.4585 56.8506 47.4585H56.4697C56.3851 47.4585 56.2793 47.4373 56.1523 47.395V47.3315C56.1523 41.394 54.1033 38.0042 50.0053 37.1619L49.0642 40.9597C49.1969 40.9899 49.3168 41.0297 49.4238 41.0791C49.7201 41.2061 49.9634 41.4176 50.1538 41.7139C50.5135 42.3063 50.7357 43.2902 50.8203 44.6655C50.1855 44.9406 49.6883 45.3743 49.3286 45.9668C48.9689 46.5592 48.7891 47.2998 48.7891 48.1885C48.7891 48.9079 48.916 49.5003 49.1699 49.9658C49.445 50.4313 49.8999 50.7487 50.5347 50.918C50.2808 52.8011 49.8999 54.5679 49.3921 56.2183C48.8843 57.8687 48.2812 59.3075 47.583 60.5347C46.8848 61.7619 46.1336 62.7246 45.3296 63.4229C44.6275 64.0301 43.9338 64.365 43.2487 64.4277L41.8182 70.2003ZM48.0478 40.9039C46.691 41.0432 45.3617 42.1384 44.0601 44.1895C42.7694 46.1784 41.7114 48.6328 40.8862 51.5527C40.0822 54.4092 39.6802 56.9482 39.6802 59.1699C39.6802 60.249 39.7331 61.1271 39.8389 61.8042C39.9658 62.4813 40.1668 63.0103 40.4419 63.3911C40.6958 63.772 41.0238 64.047 41.4258 64.2163C41.6523 64.2998 41.9191 64.3597 42.2263 64.3961L40.7699 70.2733C40.6504 70.2767 40.5305 70.2783 40.4102 70.2783C37.194 70.2783 34.7078 69.4954 32.9517 67.9297C30.9839 66.1947 30 63.5604 30 60.0269C30 58.6938 30.1375 57.2233 30.4126 55.6152C30.6877 53.986 31.1108 52.3462 31.6821 50.6958C32.994 46.7603 34.8665 43.6182 37.2998 41.2695C40.2409 38.3919 43.7427 36.9531 47.8052 36.9531C48.2232 36.9531 48.6256 36.9727 49.0123 37.0117L48.0478 40.9039Z" fill="url(#paint0_linear)"/>
<path d="M33.48 81.5359L76.344 81.5359C76.814 81.5359 77.942 81.6769 79.728 81.9589C81.42 82.1469 82.924 82.9929 84.24 84.4969C85.462 82.9929 86.966 82.1469 88.752 81.9589C90.538 81.6769 91.666 81.5359 92.136 81.5359L136.551 81.5359L136.551 36.7809L139.371 36.7809L139.371 81.1129C139.371 81.8649 139.042 82.6169 138.384 83.3689C137.726 84.0269 136.645 84.3559 135.141 84.3559L92.136 84.3559C90.726 84.3559 89.316 84.6379 87.906 85.2019C86.496 85.7659 85.697 86.8939 85.509 88.5859L82.689 88.5859C82.689 87.2699 82.266 86.3299 81.42 85.7659C80.48 85.1079 79.493 84.7319 78.459 84.6379C77.425 84.4499 76.72 84.3559 76.344 84.3559L34.89 84.3559C33.01 84.3559 31.835 83.9329 31.365 83.0869C30.895 82.1469 30.66 81.4889 30.66 81.1129L30.66 73.7809L33.48 73.7809L33.48 81.5359Z" fill="#FF5C16"/>
<defs>
<linearGradient id="paint0_linear" x1="65.9204" y1="64.5244" x2="22.4204" y2="54.0244" gradientUnits="userSpaceOnUse">
<stop offset="0.486364" stop-color="#FF5C16"/>
<stop offset="0.511402" stop-color="#F2F2F2"/>
</linearGradient>
</defs>
</svg>
